<?xml version="1.0" encoding="UTF-8"?>
<svg id="Layer_2" data-name="Layer 2" xmlns="http://www.w3.org/2000/svg" viewBox="0 0 308.65 308.65">
  <defs>
    <style>
      .cls-1 {
        fill: none;
      }

      .cls-2 {
        fill: #4f46e5;
      }
    </style>
  </defs>
  <g id="Layer_1-2" data-name="Layer 1">
    <g>
      <g>
        <g>
          <path class="cls-2" d="m225.42,208.09c-1.59,1.28-4,.98-5.18-.69-14.8-20.85-23.49-46.34-23.49-73.84,0-34.81,13.93-66.42,36.6-89.46.73-.75,1.78-1.15,2.83-1.09,23.75,1.27,42.66,9.58,52.78,25.2,22.28,34.56-5.8,93.51-63.53,139.88Z"/>
          <path class="cls-2" d="m206.07,216.96c.78,1.59.29,3.49-1.18,4.48-1.53,1.03-3.09,2.06-4.66,3.07-16.74,10.83-33.83,19.54-50.49,26.11-1.63.64-3.49.02-4.39-1.48-5.23-8.76-9.77-18.86-13.7-30.21-9.31-26.98-15.1-61.08-17.29-102.34-.1-1.89-1.65-3.4-3.55-3.4h0c-1.68,0-3.13,1.2-3.49,2.84-11.5,52.4-17.27,89.17-17.27,110.27,0,13.14,1.44,24.61,4.34,34.35.63,2.12-.92,4.33-3.12,4.52-32.5,2.81-58.89-5.27-71.54-24.81-25.36-39.29,14.36-110.01,88.71-158.03,17.62-11.38,35.59-20.48,53.12-27.14,1.97-.75,4.18.38,4.73,2.42,3.49,12.83,6.15,26.27,7.93,40.22,2.23,16.98,6.11,37.41,11.66,61.25,4.93,21.1,11.68,40.44,20.2,57.88Z"/>
        </g>
        <path class="cls-2" d="m222.47,210.43c-16.15-21.39-25.71-48.02-25.71-76.88,0-35.4,14.41-67.49,37.76-90.63,24.53.96,44.09,9.3,54.44,25.28,22.66,35.14-6.77,95.52-66.49,142.23Z"/>
      </g>
      <rect class="cls-1" width="308.65" height="308.65" rx="30.57" ry="30.57"/>
    </g>
  </g>
</svg>