<?xml version="1.0" encoding="UTF-8"?>
<svg id="Layer_2" data-name="Layer 2" xmlns="http://www.w3.org/2000/svg" viewBox="0 0 239.62 239.62">
  <defs>
    <style>
      .cls-1 {
        fill: #fff;
      }

      .cls-2 {
        fill: #4f46e5;
      }
    </style>
  </defs>
  <g id="Layer_1-2" data-name="Layer 1">
    <g>
      <circle class="cls-2" cx="119.81" cy="119.81" r="119.81"/>
      <g>
        <path class="cls-1" d="m97.26,135.39v61.65h-34.82v-97.22c0-1.64,1.98-2.46,3.14-1.3l28.01,28.01c2.35,2.35,3.67,5.54,3.67,8.87Z"/>
        <path class="cls-1" d="m177.19,42.58v101.38c0,1-1.23,1.5-1.95.79l-29.19-28.63c-2.35-2.31-3.67-5.43-3.67-8.69V42.58h34.82Z"/>
        <path class="cls-1" d="m177.19,153.79v37.27c0,3.31-2.68,5.99-5.99,5.99h0l-28.83-28.83L62.44,88.29v-43.19c0-2.23,2.7-3.35,4.28-1.77l110.47,110.47Z"/>
      </g>
    </g>
  </g>
</svg>